<svg width="512" height="512" viewBox="0 0 512 512" fill="none" xmlns="http://www.w3.org/2000/svg">
<path fill-rule="evenodd" clip-rule="evenodd" d="M123.2 264.896C101.998 264.896 81.2719 271.183 63.6429 282.962C46.014 294.742 32.2739 311.484 24.1602 331.072C16.0464 350.661 13.9235 372.215 18.0599 393.01C22.1962 413.804 32.406 432.906 47.3982 447.898C62.3904 462.89 81.4916 473.1 102.286 477.236C123.081 481.373 144.635 479.25 164.224 471.136C183.812 463.022 200.554 449.283 212.334 431.654C224.113 414.025 230.4 393.298 230.4 372.096C230.375 343.673 219.072 316.421 198.974 296.322C178.875 276.224 151.623 264.921 123.2 264.896ZM123.2 447.408C108.327 447.408 93.7877 442.998 81.4212 434.735C69.0546 426.471 59.416 414.727 53.7243 400.986C48.0326 387.245 46.5434 372.125 49.445 357.537C52.3466 342.95 59.5087 329.55 70.0256 319.034C80.5425 308.517 93.9419 301.355 108.529 298.453C123.117 295.551 138.237 297.041 151.978 302.732C165.719 308.424 177.463 318.063 185.727 330.429C193.99 342.796 198.4 357.335 198.4 372.208C198.37 392.143 190.438 411.253 176.342 425.35C162.245 439.446 143.135 447.378 123.2 447.408Z" fill="#FF0000"/>
<path fill-rule="evenodd" clip-rule="evenodd" d="M147.503 332.431L113.903 374.495L99.7594 353.263C97.4043 349.732 93.7431 347.282 89.5813 346.451C85.4195 345.62 81.098 346.476 77.5674 348.831C74.0368 351.186 71.5864 354.847 70.7553 359.009C69.9241 363.171 70.7803 367.492 73.1354 371.023L99.4234 410.447C100.819 412.541 102.689 414.277 104.882 415.512C107.075 416.748 109.528 417.449 112.043 417.558C114.557 417.667 117.062 417.181 119.354 416.14C121.645 415.099 123.659 413.532 125.231 411.567L172.543 352.367C175.162 349.05 176.362 344.831 175.881 340.633C175.4 336.434 173.278 332.596 169.977 329.957C166.676 327.317 162.465 326.091 158.264 326.546C154.062 327 150.211 329.099 147.551 332.383L147.503 332.431Z" fill="#FF0000"/>
<path d="M388.74 297.487C402.49 297.487 413.636 286.341 413.636 272.591C413.636 258.841 402.49 247.695 388.74 247.695C374.99 247.695 363.844 258.841 363.844 272.591C363.844 286.341 374.99 297.487 388.74 297.487Z" fill="#FF0000"/>
<path fill-rule="evenodd" clip-rule="evenodd" d="M480.003 132.144H114.963C106.005 132.144 97.4145 128.585 91.0802 122.251C84.746 115.917 81.1875 107.326 81.1875 98.3678C81.1875 89.4098 84.746 80.8188 91.0802 74.4845C97.4145 68.1503 106.005 64.5918 114.963 64.5918H430.163C434.407 64.5918 438.476 62.9061 441.477 59.9055C444.477 56.9049 446.163 52.8352 446.163 48.5918C446.163 44.3483 444.477 40.2787 441.477 37.2781C438.476 34.2775 434.407 32.5918 430.163 32.5918H114.963C97.5212 32.6003 80.7957 39.5329 68.4622 51.8665C56.1286 64.2 49.196 80.9255 49.1875 98.3678V254.24C49.1875 258.483 50.8732 262.553 53.8738 265.554C56.8744 268.554 60.944 270.24 65.1875 270.24C69.4309 270.24 73.5006 268.554 76.5012 265.554C79.5018 262.553 81.1875 258.483 81.1875 254.24V154.816C91.3899 160.936 103.066 164.16 114.963 164.144H464.003V363.856C464.003 372.814 460.445 381.405 454.11 387.739C447.776 394.073 439.185 397.632 430.227 397.632H247.699C243.456 397.632 239.387 399.318 236.386 402.318C233.386 405.319 231.699 409.388 231.699 413.632C231.699 417.875 233.386 421.945 236.386 424.946C239.387 427.946 243.456 429.632 247.699 429.632H430.227C447.671 429.628 464.399 422.696 476.733 410.362C489.068 398.027 495.999 381.3 496.003 363.856V148.144C496.003 143.901 494.317 139.831 491.317 136.83C488.316 133.83 484.247 132.144 480.003 132.144Z" fill="#FF0000"/>
<path fill-rule="evenodd" clip-rule="evenodd" d="M430.227 82.3691H231.107C226.864 82.3691 222.794 84.0548 219.793 87.0554C216.793 90.056 215.107 94.1256 215.107 98.3691C215.107 102.612 216.793 106.682 219.793 109.683C222.794 112.683 226.864 114.369 231.107 114.369H430.227C434.471 114.369 438.54 112.683 441.541 109.683C444.541 106.682 446.227 102.612 446.227 98.3691C446.227 94.1256 444.541 90.056 441.541 87.0554C438.54 84.0548 434.471 82.3691 430.227 82.3691ZM131.555 82.3691C127.312 82.3691 123.242 84.0548 120.241 87.0554C117.241 90.056 115.555 94.1256 115.555 98.3691C115.555 102.612 117.241 106.682 120.241 109.683C123.242 112.683 127.312 114.369 131.555 114.369H164.803C169.047 114.369 173.116 112.683 176.117 109.683C179.117 106.682 180.803 102.612 180.803 98.3691C180.803 94.1256 179.117 90.056 176.117 87.0554C173.116 84.0548 169.047 82.3691 164.803 82.3691H131.555Z" fill="#FF0000"/>
</svg>
