<svg width="512" height="513" viewBox="0 0 512 513" fill="none" xmlns="http://www.w3.org/2000/svg">
<path fill-rule="evenodd" clip-rule="evenodd" d="M432 40.3203H80C63.0261 40.3203 46.7475 47.0631 34.7452 59.0655C22.7428 71.0678 16 87.3464 16 104.32V296.32C16 313.294 22.7428 329.572 34.7452 341.575C46.7475 353.577 63.0261 360.32 80 360.32H192C196.243 360.32 200.313 358.634 203.314 355.634C206.314 352.633 208 348.563 208 344.32C208 340.077 206.314 336.007 203.314 333.006C200.313 330.006 196.243 328.32 192 328.32H80C71.5131 328.32 63.3737 324.949 57.3726 318.947C51.3714 312.946 48 304.807 48 296.32V104.32C48 95.8334 51.3714 87.694 57.3726 81.6929C63.3737 75.6917 71.5131 72.3203 80 72.3203H432C440.487 72.3203 448.626 75.6917 454.627 81.6929C460.629 87.694 464 95.8334 464 104.32V296.32C464 304.807 460.629 312.946 454.627 318.947C448.626 324.949 440.487 328.32 432 328.32H320C315.757 328.32 311.687 330.006 308.686 333.006C305.686 336.007 304 340.077 304 344.32C304 348.563 305.686 352.633 308.686 355.634C311.687 358.634 315.757 360.32 320 360.32H432C448.974 360.32 465.252 353.577 477.255 341.575C489.257 329.572 496 313.294 496 296.32V104.32C496 87.3464 489.257 71.0678 477.255 59.0655C465.252 47.0631 448.974 40.3203 432 40.3203Z" fill="#FF0000"/>
<path fill-rule="evenodd" clip-rule="evenodd" d="M128 88.3203H117.328C104.598 88.3203 92.3887 93.3774 83.387 102.379C74.3852 111.381 69.3281 123.59 69.3281 136.32V152.32C69.3281 156.563 71.0138 160.633 74.0144 163.634C77.015 166.634 81.0846 168.32 85.3281 168.32C89.5716 168.32 93.6412 166.634 96.6418 163.634C99.6424 160.633 101.328 156.563 101.328 152.32V136.32C101.328 132.077 103.014 128.007 106.014 125.006C109.015 122.006 113.085 120.32 117.328 120.32H128C132.243 120.32 136.313 118.634 139.314 115.634C142.314 112.633 144 108.563 144 104.32C144 100.077 142.314 96.0072 139.314 93.0066C136.313 90.006 132.243 88.3203 128 88.3203ZM432 168.32C436.243 168.32 440.313 166.634 443.314 163.634C446.314 160.633 448 156.563 448 152.32V136.32C448 123.59 442.943 111.381 433.941 102.379C424.939 93.3774 412.73 88.3203 400 88.3203H389.328C385.085 88.3203 381.015 90.006 378.014 93.0066C375.014 96.0072 373.328 100.077 373.328 104.32C373.328 108.563 375.014 112.633 378.014 115.634C381.015 118.634 385.085 120.32 389.328 120.32H400C404.243 120.32 408.313 122.006 411.314 125.006C414.314 128.007 416 132.077 416 136.32V152.32C416 156.563 417.686 160.633 420.686 163.634C423.687 166.634 427.757 168.32 432 168.32ZM85.3281 232.32C81.0846 232.32 77.015 234.006 74.0144 237.006C71.0138 240.007 69.3281 244.077 69.3281 248.32V264.32C69.3281 277.05 74.3852 289.259 83.387 298.261C92.3887 307.263 104.598 312.32 117.328 312.32H128C132.243 312.32 136.313 310.634 139.314 307.634C142.314 304.633 144 300.563 144 296.32C144 292.077 142.314 288.007 139.314 285.006C136.313 282.006 132.243 280.32 128 280.32H117.328C113.085 280.32 109.015 278.634 106.014 275.634C103.014 272.633 101.328 268.563 101.328 264.32V248.32C101.328 244.077 99.6424 240.007 96.6418 237.006C93.6412 234.006 89.5716 232.32 85.3281 232.32ZM389.328 312.32H400C412.73 312.32 424.939 307.263 433.941 298.261C442.943 289.259 448 277.05 448 264.32V248.32C448 244.077 446.314 240.007 443.314 237.006C440.313 234.006 436.243 232.32 432 232.32C427.757 232.32 423.687 234.006 420.686 237.006C417.686 240.007 416 244.077 416 248.32V264.32C416 268.563 414.314 272.633 411.314 275.634C408.313 278.634 404.243 280.32 400 280.32H389.328C385.085 280.32 381.015 282.006 378.014 285.006C375.014 288.007 373.328 292.077 373.328 296.32C373.328 300.563 375.014 304.633 378.014 307.634C381.015 310.634 385.085 312.32 389.328 312.32Z" fill="#FF0000"/>
<path fill-rule="evenodd" clip-rule="evenodd" d="M292.688 397.008L272 417.696V344.32C272 340.077 270.314 336.007 267.314 333.006C264.313 330.006 260.243 328.32 256 328.32C251.757 328.32 247.687 330.006 244.686 333.006C241.686 336.007 240 340.077 240 344.32V417.696L219.312 397.008C217.836 395.48 216.071 394.261 214.118 393.422C212.166 392.584 210.067 392.142 207.942 392.124C205.818 392.105 203.711 392.51 201.745 393.315C199.778 394.119 197.992 395.307 196.49 396.81C194.987 398.312 193.799 400.098 192.995 402.065C192.19 404.031 191.786 406.138 191.804 408.262C191.822 410.387 192.264 412.486 193.102 414.438C193.941 416.391 195.16 418.156 196.688 419.632L244.688 467.632C247.688 470.632 251.757 472.317 256 472.317C260.243 472.317 264.312 470.632 267.312 467.632L315.312 419.632C318.227 416.614 319.839 412.573 319.803 408.378C319.766 404.182 318.084 400.169 315.117 397.203C312.151 394.236 308.138 392.554 303.942 392.517C299.747 392.481 295.706 394.093 292.688 397.008ZM336 200.32C336 184.497 331.308 169.03 322.518 155.874C313.727 142.718 301.233 132.465 286.615 126.41C271.997 120.355 255.911 118.77 240.393 121.857C224.874 124.944 210.62 132.563 199.431 143.751C188.243 154.94 180.624 169.194 177.537 184.713C174.45 200.231 176.035 216.317 182.09 230.935C188.145 245.553 198.398 258.047 211.554 266.838C224.71 275.628 240.177 280.32 256 280.32C277.217 280.32 297.566 271.891 312.569 256.889C327.571 241.886 336 221.537 336 200.32ZM208 200.32C208 190.826 210.815 181.546 216.089 173.653C221.364 165.759 228.86 159.607 237.631 155.974C246.402 152.341 256.053 151.39 265.364 153.242C274.675 155.094 283.228 159.666 289.941 166.379C296.654 173.092 301.226 181.645 303.078 190.956C304.93 200.267 303.979 209.918 300.346 218.689C296.713 227.46 290.561 234.956 282.667 240.231C274.774 245.505 265.493 248.32 256 248.32C243.27 248.32 231.061 243.263 222.059 234.261C213.057 225.259 208 213.05 208 200.32Z" fill="#FF0000"/>
</svg>
