<svg width="512" height="512" viewBox="0 0 512 512" fill="none" xmlns="http://www.w3.org/2000/svg">
<path fill-rule="evenodd" clip-rule="evenodd" d="M164.93 153.599C169.173 153.599 173.243 151.913 176.244 148.913C179.244 145.912 180.93 141.842 180.93 137.599C180.93 117.689 188.839 98.5941 202.918 84.5153C216.997 70.4366 236.092 62.5273 256.002 62.5273C275.912 62.5273 295.007 70.4366 309.086 84.5153C323.165 98.5941 331.074 117.689 331.074 137.599C331.074 141.842 332.76 145.912 335.76 148.913C338.761 151.913 342.831 153.599 347.074 153.599C351.317 153.599 355.387 151.913 358.388 148.913C361.388 145.912 363.074 141.842 363.074 137.599C363.074 109.202 351.793 81.9678 331.713 61.8879C311.633 41.808 284.399 30.5273 256.002 30.5273C227.605 30.5273 200.371 41.808 180.291 61.8879C160.211 81.9678 148.93 109.202 148.93 137.599C148.93 141.842 150.616 145.912 153.616 148.913C156.617 151.913 160.687 153.599 164.93 153.599Z" fill="#FF0000"/>
<path fill-rule="evenodd" clip-rule="evenodd" d="M494.881 412.529L453.281 204.369C450.688 191.289 443.637 179.514 433.332 171.052C423.026 162.59 410.104 157.966 396.769 157.969H115.201C101.866 157.966 88.9441 162.59 78.6383 171.052C68.3325 179.514 61.2818 191.289 58.689 204.369L17.089 412.529C15.4092 420.891 15.6075 429.523 17.6697 437.799C19.7319 446.076 23.6065 453.791 29.0137 460.387C34.4208 466.984 41.2255 472.298 48.9363 475.944C56.6471 479.59 65.0715 481.479 73.601 481.473H438.401C446.931 481.479 455.355 479.59 463.066 475.944C470.776 472.298 477.581 466.984 482.988 460.387C488.395 453.791 492.27 446.076 494.332 437.799C496.395 429.523 496.593 420.891 494.913 412.529H494.881ZM458.193 440.097C455.789 443.031 452.764 445.394 449.336 447.015C445.907 448.637 442.162 449.476 438.369 449.473H73.601C69.807 449.479 66.0591 448.642 62.6284 447.021C59.1977 445.401 56.1701 443.039 53.7645 440.105C51.3589 437.171 49.6355 433.739 48.719 430.057C47.8024 426.376 47.7157 422.536 48.465 418.817L90.065 210.641C91.2209 204.827 94.3587 199.594 98.9428 195.836C103.527 192.078 109.273 190.027 115.201 190.033H396.801C402.729 190.027 408.475 192.078 413.059 195.836C417.643 199.594 420.781 204.827 421.937 210.641L463.537 418.817C464.279 422.538 464.185 426.378 463.26 430.058C462.336 433.739 460.605 437.168 458.193 440.097Z" fill="#FF0000"/>
</svg>
